<svg xmlns="http://www.w3.org/2000/svg" xmlns:xlink="http://www.w3.org/1999/xlink" width="28" zoomAndPan="magnify" viewBox="0 0 21 21.75" height="29" preserveAspectRatio="xMidYMid meet" version="1.0"><defs><clipPath id="4a9402b60a"><path d="M 0.121094 2 L 20.878906 2 L 20.878906 20.761719 L 0.121094 20.761719 Z M 0.121094 2 " clip-rule="nonzero"/></clipPath></defs><path fill="#e5c690" d="M 6.59375 10.742188 L 5.128906 10.742188 C 4.804688 10.742188 4.539062 11.003906 4.539062 11.328125 L 4.539062 12.792969 C 4.539062 13.121094 4.804688 13.382812 5.128906 13.382812 L 6.59375 13.382812 C 6.917969 13.382812 7.179688 13.121094 7.179688 12.792969 L 7.179688 11.328125 C 7.179688 11.003906 6.917969 10.742188 6.59375 10.742188 Z M 6.59375 10.742188 " fill-opacity="1" fill-rule="nonzero"/><path fill="#e5c690" d="M 6.59375 14.96875 L 5.128906 14.96875 C 4.804688 14.96875 4.539062 15.230469 4.539062 15.554688 L 4.539062 17.019531 C 4.539062 17.34375 4.804688 17.609375 5.128906 17.609375 L 6.59375 17.609375 C 6.917969 17.609375 7.179688 17.34375 7.179688 17.019531 L 7.179688 15.554688 C 7.179688 15.230469 6.917969 14.96875 6.59375 14.96875 Z M 6.59375 14.96875 " fill-opacity="1" fill-rule="nonzero"/><path fill="#e5c690" d="M 11.152344 10.742188 L 9.691406 10.742188 C 9.363281 10.742188 9.101562 11.003906 9.101562 11.328125 L 9.101562 12.792969 C 9.101562 13.121094 9.363281 13.382812 9.691406 13.382812 L 11.152344 13.382812 C 11.480469 13.382812 11.742188 13.121094 11.742188 12.792969 L 11.742188 11.328125 C 11.742188 11.003906 11.480469 10.742188 11.152344 10.742188 Z M 11.152344 10.742188 " fill-opacity="1" fill-rule="nonzero"/><path fill="#e5c690" d="M 11.152344 14.96875 L 9.691406 14.96875 C 9.363281 14.96875 9.101562 15.230469 9.101562 15.554688 L 9.101562 17.019531 C 9.101562 17.34375 9.363281 17.609375 9.691406 17.609375 L 11.152344 17.609375 C 11.480469 17.609375 11.742188 17.34375 11.742188 17.019531 L 11.742188 15.554688 C 11.742188 15.230469 11.480469 14.96875 11.152344 14.96875 Z M 11.152344 14.96875 " fill-opacity="1" fill-rule="nonzero"/><path fill="#e5c690" d="M 15.714844 10.742188 L 14.25 10.742188 C 13.925781 10.742188 13.664062 11.003906 13.664062 11.328125 L 13.664062 12.792969 C 13.664062 13.121094 13.925781 13.382812 14.25 13.382812 L 15.714844 13.382812 C 16.039062 13.382812 16.304688 13.121094 16.304688 12.792969 L 16.304688 11.328125 C 16.304688 11.003906 16.039062 10.742188 15.714844 10.742188 Z M 15.714844 10.742188 " fill-opacity="1" fill-rule="nonzero"/><path fill="#e5c690" d="M 15.714844 14.96875 L 14.25 14.96875 C 13.925781 14.96875 13.664062 15.230469 13.664062 15.554688 L 13.664062 17.019531 C 13.664062 17.34375 13.925781 17.609375 14.25 17.609375 L 15.714844 17.609375 C 16.039062 17.609375 16.304688 17.34375 16.304688 17.019531 L 16.304688 15.554688 C 16.304688 15.230469 16.039062 14.96875 15.714844 14.96875 Z M 15.714844 14.96875 " fill-opacity="1" fill-rule="nonzero"/><path fill="#e5c690" d="M 5.664062 4.621094 C 6.242188 4.621094 6.707031 4.15625 6.707031 3.578125 L 6.707031 1.023438 C 6.707031 0.449219 6.242188 -0.0195312 5.664062 -0.0195312 C 5.089844 -0.0195312 4.621094 0.449219 4.621094 1.023438 L 4.621094 3.578125 C 4.621094 4.15625 5.089844 4.621094 5.664062 4.621094 Z M 5.664062 4.621094 " fill-opacity="1" fill-rule="nonzero"/><g clip-path="url(#4a9402b60a)"><path fill="#e5c690" d="M 17.5 2.683594 L 16.808594 2.683594 L 16.808594 3.578125 C 16.808594 4.476562 16.078125 5.207031 15.179688 5.207031 C 14.28125 5.207031 13.550781 4.476562 13.550781 3.578125 L 13.550781 2.683594 L 7.292969 2.683594 L 7.292969 3.578125 C 7.292969 4.476562 6.5625 5.207031 5.664062 5.207031 C 4.765625 5.207031 4.035156 4.476562 4.035156 3.578125 L 4.035156 2.683594 L 3.34375 2.683594 C 1.640625 2.683594 0.257812 4.070312 0.257812 5.773438 L 0.257812 17.972656 C 0.257812 19.675781 1.640625 21.058594 3.34375 21.058594 L 17.5 21.058594 C 19.199219 21.058594 20.585938 19.675781 20.585938 17.972656 L 20.585938 5.769531 C 20.585938 4.070312 19.203125 2.683594 17.5 2.683594 Z M 18.804688 17.972656 C 18.804688 18.695312 18.21875 19.277344 17.5 19.277344 L 3.34375 19.277344 C 2.625 19.277344 2.039062 18.695312 2.039062 17.972656 L 2.039062 9.683594 C 2.039062 9.347656 2.316406 9.074219 2.652344 9.074219 L 18.191406 9.074219 C 18.53125 9.074219 18.804688 9.347656 18.804688 9.683594 Z M 18.804688 17.972656 " fill-opacity="1" fill-rule="nonzero"/></g><path fill="#e5c690" d="M 15.179688 4.621094 C 15.753906 4.621094 16.222656 4.15625 16.222656 3.578125 L 16.222656 1.023438 C 16.222656 0.449219 15.753906 -0.0195312 15.179688 -0.0195312 C 14.601562 -0.0195312 14.136719 0.449219 14.136719 1.023438 L 14.136719 3.578125 C 14.136719 4.15625 14.601562 4.621094 15.179688 4.621094 Z M 15.179688 4.621094 " fill-opacity="1" fill-rule="nonzero"/></svg>